<svg width="199" height="55" viewBox="0 0 199 55" fill="none" xmlns="http://www.w3.org/2000/svg">
<path d="M79.6875 9.63C79.6875 10.435 79.56 11.1675 79.305 11.8275C79.05 12.4875 78.69 13.0525 78.225 13.5225C77.76 13.9925 77.2 14.3575 76.545 14.6175C75.895 14.8725 75.175 15 74.385 15H70.3725V4.2525H74.385C75.175 4.2525 75.895 4.3825 76.545 4.6425C77.2 4.8975 77.76 5.2625 78.225 5.7375C78.69 6.2075 79.05 6.7725 79.305 7.4325C79.56 8.0925 79.6875 8.825 79.6875 9.63ZM78.195 9.63C78.195 8.97 78.105 8.38 77.925 7.86C77.745 7.34 77.49 6.9 77.16 6.54C76.83 6.18 76.43 5.905 75.96 5.715C75.49 5.525 74.965 5.43 74.385 5.43H71.8275V13.8225H74.385C74.965 13.8225 75.49 13.7275 75.96 13.5375C76.43 13.3475 76.83 13.075 77.16 12.72C77.49 12.36 77.745 11.92 77.925 11.4C78.105 10.88 78.195 10.29 78.195 9.63ZM95.5982 11.01L93.9107 6.6375C93.8607 6.5075 93.8082 6.3575 93.7532 6.1875C93.6982 6.0125 93.6457 5.8275 93.5957 5.6325C93.4907 6.0375 93.3832 6.375 93.2732 6.645L91.5857 11.01H95.5982ZM98.6282 15H97.5032C97.3732 15 97.2682 14.9675 97.1882 14.9025C97.1082 14.8375 97.0482 14.755 97.0082 14.655L96.0032 12.06H91.1807L90.1757 14.655C90.1457 14.745 90.0882 14.825 90.0032 14.895C89.9182 14.965 89.8132 15 89.6882 15H88.5632L92.8607 4.2525H94.3307L98.6282 15ZM114.54 13.7775V15H108.442V4.2525H109.89V13.7775H114.54ZM126.002 15H124.547V4.2525H126.002V15ZM143.781 13.815L143.774 15H137.151V4.2525H143.774V5.4375H138.606V9.0075H142.791V10.1475H138.606V13.815H143.781ZM162.916 4.2525V15H162.188C162.073 15 161.976 14.98 161.896 14.94C161.821 14.9 161.746 14.8325 161.671 14.7375L155.453 6.6375C155.463 6.7625 155.471 6.885 155.476 7.005C155.481 7.125 155.483 7.2375 155.483 7.3425V15H154.208V4.2525H154.958C155.023 4.2525 155.078 4.2575 155.123 4.2675C155.168 4.2725 155.208 4.285 155.243 4.305C155.278 4.32 155.313 4.345 155.348 4.38C155.383 4.41 155.421 4.45 155.461 4.5L161.678 12.5925C161.668 12.4625 161.658 12.3375 161.648 12.2175C161.643 12.0925 161.641 11.975 161.641 11.865V4.2525H162.916ZM179.561 5.9325C179.516 6.0075 179.466 6.065 179.411 6.105C179.361 6.14 179.299 6.1575 179.224 6.1575C179.139 6.1575 179.039 6.115 178.924 6.03C178.809 5.945 178.664 5.8525 178.489 5.7525C178.319 5.6475 178.111 5.5525 177.866 5.4675C177.626 5.3825 177.334 5.34 176.989 5.34C176.664 5.34 176.376 5.385 176.126 5.475C175.881 5.56 175.674 5.6775 175.504 5.8275C175.339 5.9775 175.214 6.155 175.129 6.36C175.044 6.56 175.001 6.7775 175.001 7.0125C175.001 7.3125 175.074 7.5625 175.219 7.7625C175.369 7.9575 175.564 8.125 175.804 8.265C176.049 8.405 176.324 8.5275 176.629 8.6325C176.939 8.7325 177.254 8.8375 177.574 8.9475C177.899 9.0575 178.214 9.1825 178.519 9.3225C178.829 9.4575 179.104 9.63 179.344 9.84C179.589 10.05 179.784 10.3075 179.929 10.6125C180.079 10.9175 180.154 11.2925 180.154 11.7375C180.154 12.2075 180.074 12.65 179.914 13.065C179.754 13.475 179.519 13.8325 179.209 14.1375C178.904 14.4425 178.526 14.6825 178.076 14.8575C177.631 15.0325 177.124 15.12 176.554 15.12C175.854 15.12 175.219 14.995 174.649 14.745C174.079 14.49 173.591 14.1475 173.186 13.7175L173.606 13.0275C173.646 12.9725 173.694 12.9275 173.749 12.8925C173.809 12.8525 173.874 12.8325 173.944 12.8325C174.009 12.8325 174.081 12.86 174.161 12.915C174.246 12.965 174.341 13.03 174.446 13.11C174.551 13.19 174.671 13.2775 174.806 13.3725C174.941 13.4675 175.094 13.555 175.264 13.635C175.439 13.715 175.636 13.7825 175.856 13.8375C176.076 13.8875 176.324 13.9125 176.599 13.9125C176.944 13.9125 177.251 13.865 177.521 13.77C177.791 13.675 178.019 13.5425 178.204 13.3725C178.394 13.1975 178.539 12.99 178.639 12.75C178.739 12.51 178.789 12.2425 178.789 11.9475C178.789 11.6225 178.714 11.3575 178.564 11.1525C178.419 10.9425 178.226 10.7675 177.986 10.6275C177.746 10.4875 177.471 10.37 177.161 10.275C176.851 10.175 176.536 10.075 176.216 9.975C175.896 9.87 175.581 9.75 175.271 9.615C174.961 9.48 174.686 9.305 174.446 9.09C174.206 8.875 174.011 8.6075 173.861 8.2875C173.716 7.9625 173.644 7.5625 173.644 7.0875C173.644 6.7075 173.716 6.34 173.861 5.985C174.011 5.63 174.226 5.315 174.506 5.04C174.791 4.765 175.139 4.545 175.549 4.38C175.964 4.215 176.439 4.1325 176.974 4.1325C177.574 4.1325 178.119 4.2275 178.609 4.4175C179.104 4.6075 179.539 4.8825 179.914 5.2425L179.561 5.9325ZM197.876 5.475H194.396V15H192.948V5.475H189.461V4.2525H197.876V5.475ZM77.64 23.475H74.16V33H72.7125V23.475H69.225V22.2525H77.64V23.475ZM94.2648 31.815L94.2573 33H87.6348V22.2525H94.2573V23.4375H89.0898V27.0075H93.2748V28.1475H89.0898V31.815H94.2648ZM112.003 30.78C112.083 30.78 112.153 30.8125 112.213 30.8775L112.79 31.5C112.35 32.01 111.815 32.4075 111.185 32.6925C110.56 32.9775 109.803 33.12 108.913 33.12C108.143 33.12 107.443 32.9875 106.813 32.7225C106.183 32.4525 105.645 32.0775 105.2 31.5975C104.755 31.1125 104.41 30.5325 104.165 29.8575C103.92 29.1825 103.798 28.44 103.798 27.63C103.798 26.82 103.925 26.0775 104.18 25.4025C104.435 24.7275 104.793 24.1475 105.253 23.6625C105.718 23.1775 106.273 22.8025 106.918 22.5375C107.563 22.2675 108.275 22.1325 109.055 22.1325C109.82 22.1325 110.495 22.255 111.08 22.5C111.665 22.745 112.18 23.0775 112.625 23.4975L112.145 24.165C112.115 24.215 112.075 24.2575 112.025 24.2925C111.98 24.3225 111.918 24.3375 111.838 24.3375C111.748 24.3375 111.638 24.29 111.508 24.195C111.378 24.095 111.208 23.985 110.998 23.865C110.788 23.745 110.525 23.6375 110.21 23.5425C109.895 23.4425 109.508 23.3925 109.048 23.3925C108.493 23.3925 107.985 23.49 107.525 23.685C107.065 23.875 106.668 24.1525 106.333 24.5175C106.003 24.8825 105.745 25.3275 105.56 25.8525C105.375 26.3775 105.283 26.97 105.283 27.63C105.283 28.3 105.378 28.8975 105.568 29.4225C105.763 29.9475 106.025 30.3925 106.355 30.7575C106.69 31.1175 107.083 31.3925 107.533 31.5825C107.988 31.7725 108.478 31.8675 109.003 31.8675C109.323 31.8675 109.61 31.85 109.865 31.815C110.125 31.775 110.363 31.715 110.578 31.635C110.798 31.555 111 31.455 111.185 31.335C111.375 31.21 111.563 31.0625 111.748 30.8925C111.833 30.8175 111.918 30.78 112.003 30.78ZM131.585 22.2525V33H130.13V28.11H124.332V33H122.877V22.2525H124.332V27.045H130.13V22.2525H131.585ZM76.08 47.01L74.3925 42.6375C74.3425 42.5075 74.29 42.3575 74.235 42.1875C74.18 42.0125 74.1275 41.8275 74.0775 41.6325C73.9725 42.0375 73.865 42.375 73.755 42.645L72.0675 47.01H76.08ZM79.11 51H77.985C77.855 51 77.75 50.9675 77.67 50.9025C77.59 50.8375 77.53 50.755 77.49 50.655L76.485 48.06H71.6625L70.6575 50.655C70.6275 50.745 70.57 50.825 70.485 50.895C70.4 50.965 70.295 51 70.17 51H69.045L73.3425 40.2525H74.8125L79.11 51ZM90.3789 41.4375V45.195H94.7964V46.38H90.3789V51H88.9239V40.2525H95.5464V41.4375H90.3789ZM108.783 45.4575C109.203 45.4575 109.573 45.4075 109.893 45.3075C110.218 45.2025 110.488 45.0575 110.703 44.8725C110.923 44.6825 111.088 44.4575 111.198 44.1975C111.308 43.9375 111.363 43.65 111.363 43.335C111.363 42.695 111.153 42.2125 110.733 41.8875C110.313 41.5625 109.683 41.4 108.843 41.4H107.253V45.4575H108.783ZM113.748 51H112.458C112.193 51 111.998 50.8975 111.873 50.6925L109.083 46.8525C108.998 46.7325 108.905 46.6475 108.805 46.5975C108.71 46.5425 108.56 46.515 108.355 46.515H107.253V51H105.805V40.2525H108.843C109.523 40.2525 110.11 40.3225 110.605 40.4625C111.1 40.5975 111.508 40.795 111.828 41.055C112.153 41.315 112.393 41.63 112.548 42C112.703 42.365 112.78 42.775 112.78 43.23C112.78 43.61 112.72 43.965 112.6 44.295C112.48 44.625 112.305 44.9225 112.075 45.1875C111.85 45.4475 111.573 45.67 111.243 45.855C110.918 46.04 110.548 46.18 110.133 46.275C110.318 46.38 110.478 46.5325 110.613 46.7325L113.748 51ZM125.065 51H123.61V40.2525H125.065V51ZM143.759 48.78C143.839 48.78 143.909 48.8125 143.969 48.8775L144.546 49.5C144.106 50.01 143.571 50.4075 142.941 50.6925C142.316 50.9775 141.559 51.12 140.669 51.12C139.899 51.12 139.199 50.9875 138.569 50.7225C137.939 50.4525 137.401 50.0775 136.956 49.5975C136.511 49.1125 136.166 48.5325 135.921 47.8575C135.676 47.1825 135.554 46.44 135.554 45.63C135.554 44.82 135.681 44.0775 135.936 43.4025C136.191 42.7275 136.549 42.1475 137.009 41.6625C137.474 41.1775 138.029 40.8025 138.674 40.5375C139.319 40.2675 140.031 40.1325 140.811 40.1325C141.576 40.1325 142.251 40.255 142.836 40.5C143.421 40.745 143.936 41.0775 144.381 41.4975L143.901 42.165C143.871 42.215 143.831 42.2575 143.781 42.2925C143.736 42.3225 143.674 42.3375 143.594 42.3375C143.504 42.3375 143.394 42.29 143.264 42.195C143.134 42.095 142.964 41.985 142.754 41.865C142.544 41.745 142.281 41.6375 141.966 41.5425C141.651 41.4425 141.264 41.3925 140.804 41.3925C140.249 41.3925 139.741 41.49 139.281 41.685C138.821 41.875 138.424 42.1525 138.089 42.5175C137.759 42.8825 137.501 43.3275 137.316 43.8525C137.131 44.3775 137.039 44.97 137.039 45.63C137.039 46.3 137.134 46.8975 137.324 47.4225C137.519 47.9475 137.781 48.3925 138.111 48.7575C138.446 49.1175 138.839 49.3925 139.289 49.5825C139.744 49.7725 140.234 49.8675 140.759 49.8675C141.079 49.8675 141.366 49.85 141.621 49.815C141.881 49.775 142.119 49.715 142.334 49.635C142.554 49.555 142.756 49.455 142.941 49.335C143.131 49.21 143.319 49.0625 143.504 48.8925C143.589 48.8175 143.674 48.78 143.759 48.78ZM160.341 47.01L158.653 42.6375C158.603 42.5075 158.551 42.3575 158.496 42.1875C158.441 42.0125 158.388 41.8275 158.338 41.6325C158.233 42.0375 158.126 42.375 158.016 42.645L156.328 47.01H160.341ZM163.371 51H162.246C162.116 51 162.011 50.9675 161.931 50.9025C161.851 50.8375 161.791 50.755 161.751 50.655L160.746 48.06H155.923L154.918 50.655C154.888 50.745 154.831 50.825 154.746 50.895C154.661 50.965 154.556 51 154.431 51H153.306L157.603 40.2525H159.073L163.371 51Z" fill="white"/>
<line x1="64.5" y1="55" x2="64.5" stroke="white"/>
<path d="M21.45 28.23C21.45 29.84 21.19 31.305 20.67 32.625C20.16 33.945 19.435 35.08 18.495 36.03C17.555 36.97 16.43 37.7 15.12 38.22C13.81 38.74 12.355 39 10.755 39H2.655V17.46H10.755C12.355 17.46 13.81 17.72 15.12 18.24C16.43 18.76 17.555 19.495 18.495 20.445C19.435 21.385 20.16 22.52 20.67 23.85C21.19 25.17 21.45 26.63 21.45 28.23ZM18.18 28.23C18.18 26.95 18.005 25.805 17.655 24.795C17.305 23.775 16.805 22.915 16.155 22.215C15.515 21.505 14.735 20.965 13.815 20.595C12.905 20.225 11.885 20.04 10.755 20.04H5.865V36.42H10.755C11.885 36.42 12.905 36.235 13.815 35.865C14.735 35.495 15.515 34.96 16.155 34.26C16.805 33.55 17.305 32.69 17.655 31.68C18.005 30.67 18.18 29.52 18.18 28.23ZM39.2248 20.13H32.3848V39H29.2048V20.13H22.3348V17.46H39.2248V20.13ZM51.6586 30.975L48.4636 22.62C48.2336 22.05 48.0036 21.33 47.7736 20.46C47.6636 20.89 47.5486 21.29 47.4286 21.66C47.3186 22.03 47.2086 22.36 47.0986 22.65L43.9186 30.975H51.6586ZM57.9736 39H55.5136C55.2336 39 55.0036 38.93 54.8236 38.79C54.6436 38.65 54.5136 38.47 54.4336 38.25L52.5286 33.255H43.0336L41.1286 38.25C41.0586 38.44 40.9286 38.615 40.7386 38.775C40.5486 38.925 40.3186 39 40.0486 39H37.5886L46.1686 17.46H49.3936L57.9736 39Z" fill="white"/>
</svg>
